<svg width="28" height="28" viewBox="0 0 28 28" fill="none" xmlns="http://www.w3.org/2000/svg">
<path fill-rule="evenodd" clip-rule="evenodd" d="M13.0243 0.518775C11.3164 0.685242 9.93645 1.02947 8.59226 1.62437C7.60359 2.06188 6.41875 2.74922 6.13794 3.04812C5.85856 3.34549 6.04213 3.83176 6.45821 3.89671C6.61687 3.92145 6.71406 3.87729 7.22043 3.55032C7.90043 3.11117 8.95527 2.58196 9.70028 2.30607C10.2326 2.10894 11.5449 1.75454 11.7425 1.75454C11.8473 1.75454 11.8475 1.75728 11.7527 1.89963C10.8981 3.18219 10.2979 4.76883 9.80919 7.03694L9.7226 7.43879L9.36956 7.5259C8.59754 7.71637 8.01245 8.26848 7.75539 9.04901C7.727 9.13527 7.55505 9.14134 5.13793 9.14134C3.71507 9.14134 2.55091 9.1262 2.55091 9.10762C2.55091 9.01323 3.16196 7.84068 3.42693 7.42655C3.80519 6.8355 3.83104 6.63035 3.55789 6.38633C3.40657 6.25109 3.34958 6.23157 3.17452 6.25505C2.90321 6.29146 2.86248 6.33082 2.5164 6.89026C-0.268105 11.3917 -0.160943 17.1322 2.78966 21.5305L3.01412 21.8651L2.85894 22.1659C2.64478 22.5811 2.56537 23.0778 2.64177 23.5238C2.89672 25.0121 4.4986 25.8238 5.82791 25.1382L6.12649 24.9842L6.59434 25.2874C8.73915 26.6774 10.9967 27.3912 13.5474 27.4861C18.2553 27.6612 22.6958 25.3487 25.3259 21.3522C26.8189 19.0836 27.5932 16.2903 27.491 13.5425C27.3962 10.9917 26.6823 8.73422 25.2923 6.58941L24.9891 6.12156L25.1431 5.82298C25.3562 5.40984 25.4354 4.91255 25.3591 4.46723C25.104 2.97768 23.5023 2.1673 22.1708 2.85401L21.87 3.00918L21.5354 2.78473C19.8563 1.6583 17.9693 0.933914 15.8999 0.621241C15.3744 0.541833 13.4802 0.474349 13.0243 0.518775ZM14.4623 1.67354C15.62 2.21252 16.7774 4.82956 17.3217 8.13885C17.3813 8.50159 17.4431 8.87578 17.459 8.97034L17.4878 9.14229L14.7627 9.12862L12.0376 9.11496L11.9412 8.86101C11.7617 8.38789 11.4285 8.03137 10.7873 7.62641C10.7562 7.60684 10.9224 6.84046 11.1339 6.02833C11.8295 3.35568 12.9874 1.54454 14.0005 1.54454C14.102 1.54454 14.3099 1.60258 14.4623 1.67354ZM17.0691 1.93261C17.4562 2.03054 18.0104 2.19859 18.3006 2.30607C19.504 2.7517 21.2245 3.71742 21.151 3.90599C21.0231 4.23407 20.9549 4.66219 20.9809 4.97312C21.1094 6.50905 22.6192 7.41837 24.0894 6.84526C24.1602 6.81761 24.2456 6.91095 24.4842 7.27659C24.7724 7.71817 25.45 8.9935 25.45 9.09438C25.45 9.12134 23.9813 9.14134 22.0042 9.14134H18.5583L18.414 8.25756C17.9938 5.68363 17.2967 3.53555 16.4577 2.2294C16.3365 2.04077 16.2194 1.85679 16.1975 1.82049C16.1347 1.71681 16.3003 1.73813 17.0691 1.93261ZM23.7152 3.80142C24.5757 4.25096 24.5255 5.46767 23.6297 5.87685C22.8619 6.22756 21.9504 5.56206 22.0322 4.71052C22.0878 4.1315 22.6071 3.654 23.1812 3.654C23.3543 3.654 23.5212 3.70006 23.7152 3.80142ZM4.36595 4.57207C4.16857 4.76946 4.13923 4.93951 4.26175 5.17647C4.44336 5.52761 4.98502 5.52761 5.16663 5.17647C5.30666 4.90564 5.22135 4.59766 4.97035 4.46787C4.7334 4.34535 4.56334 4.37469 4.36595 4.57207ZM10.3963 8.64183C10.9481 8.91683 11.1942 9.57621 10.947 10.1175C10.5358 11.0176 9.32287 11.0633 8.86695 10.1958C8.73884 9.95199 8.71815 9.85923 8.73578 9.60708C8.79461 8.76546 9.64836 8.26917 10.3963 8.64183ZM7.75539 10.2889C7.94618 10.8683 8.39044 11.3968 8.89275 11.6422L9.19323 11.789L9.16305 13.2484C9.13604 14.5536 9.17366 15.8002 9.28631 17.3328L9.32023 17.7945H5.72861H2.13699L2.08148 17.623C1.96609 17.2665 1.76168 16.3439 1.67188 15.7742C1.60218 15.3317 1.57907 14.877 1.58013 13.9691C1.58187 12.5275 1.68444 11.7756 2.05705 10.4736L2.1363 10.1966H4.93062C7.54518 10.1966 7.72695 10.2026 7.75539 10.2889ZM17.613 10.2626C17.7222 10.5993 17.8322 13.9934 17.7752 15.269L17.7359 16.1467L17.5617 16.175C17.2422 16.2269 16.803 16.4858 16.5053 16.798C16.2423 17.0736 15.9545 17.5587 15.9532 17.7285C15.9524 17.8251 10.4192 17.8251 10.3879 17.7285C10.2788 17.3922 10.1687 13.998 10.2256 12.7247L10.2647 11.8495L10.5223 11.7835C10.8475 11.7002 11.3433 11.3821 11.565 11.1145C11.7184 10.9295 11.9339 10.5335 12.0145 10.2889C12.043 10.2026 12.2237 10.1966 14.8183 10.1966C16.9904 10.1966 17.5963 10.2109 17.613 10.2626ZM25.9194 10.3681C26.0355 10.7267 26.2394 11.6483 26.3283 12.2168C26.4593 13.053 26.4596 14.9022 26.3291 15.7367C26.232 16.3575 26.0881 17.0247 25.945 17.5174L25.8646 17.7945H23.0573H20.25L20.0988 17.4476C19.9073 17.0078 19.53 16.5934 19.1241 16.3771L18.8075 16.2084L18.8378 14.7458C18.8649 13.4373 18.8274 12.1921 18.7146 10.6583L18.6807 10.1966H22.2723H25.8639L25.9194 10.3681ZM18.5942 17.3064C18.7817 17.4014 18.9351 17.5304 19.039 17.6803C19.1823 17.887 19.1976 17.9489 19.1976 18.3221C19.1976 18.6953 19.1823 18.7572 19.039 18.9639C18.8535 19.2314 18.4075 19.483 18.1197 19.4825C17.4527 19.4815 16.9345 18.9742 16.9345 18.3221C16.9345 17.4484 17.8135 16.9105 18.5942 17.3064ZM9.58689 19.7335C10.0154 22.3585 10.7154 24.4896 11.593 25.8408C11.7916 26.1465 11.8173 26.2128 11.7423 26.2253C11.5998 26.2492 10.2827 25.9007 9.70028 25.685C8.49687 25.2394 6.77643 24.2736 6.84993 24.0851C6.97782 23.757 7.04605 23.3289 7.02003 23.0179C6.8915 21.482 5.38169 20.5727 3.91156 21.1458C3.84075 21.1734 3.75533 21.0801 3.51668 20.7145C3.22849 20.2729 2.55091 18.9976 2.55091 18.8967C2.55091 18.8697 4.01957 18.8497 5.99675 18.8497H9.44259L9.58689 19.7335ZM15.9532 18.9157C15.9535 18.952 16.012 19.1068 16.0832 19.2598C16.2432 19.6034 16.6687 20.0614 16.983 20.2281C17.1128 20.2969 17.219 20.3805 17.219 20.4137C17.219 20.5354 16.8984 21.8816 16.7392 22.4285C16.1458 24.4663 15.2874 25.9333 14.4641 26.3167C14.1125 26.4803 13.8888 26.4805 13.5386 26.3175C12.3796 25.7779 11.2659 23.2611 10.6776 19.8522C10.5899 19.3444 10.5182 18.9111 10.5182 18.8893C10.5181 18.8675 11.7409 18.8497 13.2354 18.8497C15.3738 18.8497 15.9528 18.8637 15.9532 18.9157ZM25.45 18.8842C25.45 18.9547 24.8256 20.1578 24.6046 20.5129C23.6224 22.0916 22.0966 23.6175 20.5178 24.5997C19.9646 24.9439 19.0003 25.4155 18.351 25.6596C17.7754 25.8759 16.469 26.2365 16.2609 26.2365C16.1534 26.2365 16.1532 26.2341 16.2483 26.0914C17.0949 24.8207 17.7211 23.1665 18.1924 20.9552L18.2778 20.5544L18.6058 20.4633C19.3119 20.2669 19.8205 19.8354 20.0988 19.1966L20.25 18.8497H22.85C24.28 18.8497 25.45 18.8652 25.45 18.8842ZM5.35368 22.1629C6.23682 22.6243 6.14876 23.9043 5.20921 24.2631C4.45634 24.5506 3.61408 23.9219 3.67054 23.1144C3.71328 22.5032 4.22328 22.0155 4.81972 22.0155C4.99283 22.0155 5.15967 22.0615 5.35368 22.1629Z" fill="#8E2424"/>
</svg>
